<svg xmlns="http://www.w3.org/2000/svg" width="24.289" height="24.943" viewBox="0 0 24.289 24.943"><defs><style>.a{fill:#393b41;}</style></defs><g transform="translate(-12.9)"><path class="a" d="M454.528,1.014a1.014,1.014,0,1,0-2.028,0v.829h2.028Z" transform="translate(-428.457)"/><path class="a" d="M37.189,131.121a1.522,1.522,0,0,0-1.521-1.521H14.421a1.522,1.522,0,0,0-1.521,1.521v11.217a1.522,1.522,0,0,0,1.521,1.521H35.668a1.522,1.522,0,0,0,1.521-1.521V131.121Z" transform="translate(0 -126.315)"/><path class="a" d="M117.026,753.014A1.014,1.014,0,0,0,116.1,752c-.028,0-.056,0-.084,0h-18l-.084,0a1.014,1.014,0,0,0,.084,2.025h2.1l-1.27,2.357a1.015,1.015,0,0,0,1.787.963l1.787-3.321h3.594v2.839a1.014,1.014,0,1,0,2.028,0v-2.839h3.569l1.787,3.321a1.013,1.013,0,0,0,.895.532.99.99,0,0,0,.479-.122,1.015,1.015,0,0,0,.413-1.374l-1.27-2.357h2.1A1.014,1.014,0,0,0,117.026,753.014Z" transform="translate(-81.968 -732.938)"/></g></svg>