<svg xmlns="http://www.w3.org/2000/svg" width="26.353" height="26.353" viewBox="0 0 26.353 26.353"><defs><style>.a{fill:#393b41;}</style></defs><g transform="translate(0 -0.004)"><path class="a" d="M16.471,14.278a1.1,1.1,0,0,0-1.1,1.1v4.392a1.1,1.1,0,0,1-1.1,1.1H10.98V4.4a2.213,2.213,0,0,0-1.5-2.087L9.16,2.2h5.115a1.1,1.1,0,0,1,1.1,1.1V6.592a1.1,1.1,0,1,0,2.2,0V3.3A3.3,3.3,0,0,0,14.275,0H2.471a.862.862,0,0,0-.117.024C2.3.024,2.25,0,2.2,0A2.2,2.2,0,0,0,0,2.2V21.965a2.213,2.213,0,0,0,1.5,2.087l6.608,2.2a2.273,2.273,0,0,0,.681.1,2.2,2.2,0,0,0,2.2-2.2v-1.1h3.294a3.3,3.3,0,0,0,3.294-3.294V15.376a1.1,1.1,0,0,0-1.1-1.1Zm0,0" transform="translate(0 0)"/><path class="a" d="M289.089,111.38l-4.392-4.392a1.1,1.1,0,0,0-1.874.776v3.294H278.43a1.1,1.1,0,1,0,0,2.2h4.392v3.294a1.1,1.1,0,0,0,1.874.776l4.392-4.392A1.1,1.1,0,0,0,289.089,111.38Zm0,0" transform="translate(-263.058 -101.172)"/></g></svg>