<svg xmlns="http://www.w3.org/2000/svg" width="46.209" height="40.049" viewBox="0 0 46.209 40.049"><defs><style>.a{fill:#da291c;}</style></defs><path class="a" d="M44.4,44.507A5.936,5.936,0,0,0,40.049,42.7H34.658L33.43,39.429a4.47,4.47,0,0,0-1.673-2.034,4.286,4.286,0,0,0-2.491-.855H16.944a4.287,4.287,0,0,0-2.491.855,4.471,4.471,0,0,0-1.673,2.034L11.552,42.7H6.161A5.937,5.937,0,0,0,1.8,44.507,5.936,5.936,0,0,0,0,48.863V70.427a5.935,5.935,0,0,0,1.8,4.356,5.936,5.936,0,0,0,4.356,1.805H40.048a6.163,6.163,0,0,0,6.161-6.161V48.863A5.936,5.936,0,0,0,44.4,44.507ZM30.722,67.263A10.384,10.384,0,0,1,23.1,70.428a10.384,10.384,0,0,1-7.617-3.165,10.749,10.749,0,0,1,0-15.234A10.383,10.383,0,0,1,23.1,48.863a10.384,10.384,0,0,1,7.617,3.165,10.749,10.749,0,0,1,0,15.234Z" transform="translate(0 -36.54)"/><path class="a" d="M198.788,228.4a6.944,6.944,0,1,0,4.9,2.034A6.676,6.676,0,0,0,198.788,228.4Z" transform="translate(-175.683 -212.229)"/></svg>