<svg xmlns="http://www.w3.org/2000/svg" width="22.957" height="22.17" viewBox="0 0 22.957 22.17"><defs><style>.a{fill:#da291c;}</style></defs><g transform="translate(-0.002)"><g transform="translate(0.002)"><path class="a" d="M143.561,3.869h7.822a.424.424,0,0,0,.423-.423V0h-8.67V3.446A.424.424,0,0,0,143.561,3.869Z" transform="translate(-135.994)"/><path class="a" d="M22.6,5.577,17.762.885V3.647a1.964,1.964,0,0,1-2,1.927H7.194a1.964,1.964,0,0,1-2-1.927V0H2.109A2.071,2.071,0,0,0,0,2.034v18.1A2.071,2.071,0,0,0,2.109,22.17H20.853a2.071,2.071,0,0,0,2.106-2.034V6.415A1.166,1.166,0,0,0,22.6,5.577ZM19.388,17.5a1.209,1.209,0,0,1-1.23,1.187H4.8A1.209,1.209,0,0,1,3.573,17.5V11.316A1.209,1.209,0,0,1,4.8,10.129H18.158a1.209,1.209,0,0,1,1.23,1.187Z" transform="translate(-0.002)"/><path class="a" d="M127.866,265.131H116.481a.708.708,0,1,0,0,1.4h11.385a.708.708,0,1,0,0-1.4Z" transform="translate(-110.695 -253.05)"/><path class="a" d="M155.763,330.264h-6.837a.7.7,0,1,0,0,1.4h6.837a.7.7,0,1,0,0-1.4Z" transform="translate(-140.866 -315.215)"/></g></g></svg>