<svg xmlns="http://www.w3.org/2000/svg" width="22.957" height="22.957" viewBox="0 0 22.957 22.957"><defs><style>.a{fill:#393b41;}</style></defs><path class="a" d="M21.775,8.928H19.627a.825.825,0,0,1-.583-1.408L20.563,6a1.183,1.183,0,0,0,0-1.672L18.627,2.394a1.21,1.21,0,0,0-1.672,0L15.437,3.912a.8.8,0,0,1-.575.244.858.858,0,0,1-.58-.229.8.8,0,0,1-.253-.6V1.182A1.183,1.183,0,0,0,12.847,0H10.11A1.183,1.183,0,0,0,8.928,1.182V3.33a.822.822,0,0,1-.834.827.8.8,0,0,1-.574-.244L6,2.394a1.21,1.21,0,0,0-1.672,0L2.394,4.33A1.183,1.183,0,0,0,2.394,6L3.912,7.52A.825.825,0,0,1,3.33,8.928H1.182A1.183,1.183,0,0,0,0,10.11v2.737a1.184,1.184,0,0,0,1.182,1.183H3.33a.825.825,0,0,1,.583,1.408L2.394,16.955a1.183,1.183,0,0,0,0,1.672L4.33,20.563a1.21,1.21,0,0,0,1.672,0L7.52,19.045a.8.8,0,0,1,.575-.244.822.822,0,0,1,.833.827v2.147a1.183,1.183,0,0,0,1.181,1.182h2.737a1.184,1.184,0,0,0,1.182-1.182V19.627a.822.822,0,0,1,.833-.827.8.8,0,0,1,.575.244l1.518,1.518a1.21,1.21,0,0,0,1.672,0l1.936-1.936a1.183,1.183,0,0,0,0-1.672l-1.519-1.518a.825.825,0,0,1,.583-1.408h2.148a1.184,1.184,0,0,0,1.182-1.182V10.11A1.183,1.183,0,0,0,21.775,8.928Zm-7.321,2.551A2.976,2.976,0,1,1,11.479,8.5,2.98,2.98,0,0,1,14.454,11.479Z"/></svg>